<?xml version="1.0" encoding="UTF-8" standalone="no"?>
<!DOCTYPE svg PUBLIC "-//W3C//DTD SVG 1.1//EN" "http://www.w3.org/Graphics/SVG/1.1/DTD/svg11.dtd">
<!-- Created with Vectornator (http://vectornator.io/) -->
<svg height="100%" stroke-miterlimit="10" style="fill-rule:nonzero;clip-rule:evenodd;stroke-linecap:round;stroke-linejoin:round;" version="1.1" viewBox="0 0 256 128" width="100%" xml:space="preserve" xmlns="http://www.w3.org/2000/svg" xmlns:vectornator="http://vectornator.io" xmlns:xlink="http://www.w3.org/1999/xlink">
<defs>
<clipPath id="TextBounds">
<rect height="99.1738" width="200.745" x="35.8225" y="49.2939"/>
</clipPath>
</defs>
<clipPath id="ArtboardFrame">
<rect height="128" width="256" x="0" y="0"/>
</clipPath>
<g clip-path="url(#ArtboardFrame)" id="Ebene-1" vectornator:layerName="Ebene 1">
<path d="M23.8009 119.941" fill="none" fill-rule="evenodd" opacity="1" stroke="#000000" stroke-linecap="round" stroke-linejoin="round" stroke-width="10"/>
<path d="M27.0805 122.284" fill="#be7a40" fill-rule="evenodd" opacity="1" stroke="none"/>
<path d="M23.5466 44.3743L228.339 44.3743L228.339 129.02L23.5466 129.02L23.5466 44.3743Z" fill="#be7a40" fill-rule="evenodd" opacity="1" stroke="none"/>
<path d="M204.199 155.115L248.802 155.115L248.802 157.048L204.199 157.048L204.199 155.115Z" fill="#be7a40" fill-rule="evenodd" opacity="1" stroke="none"/>
<path d="M102.972 84.559L103.485 84.559L103.485 84.9435L102.972 84.9435L102.972 84.559Z" fill="#be7a40" fill-rule="evenodd" opacity="1" stroke="none"/>
<path d="M82.0258 48.0071C82.0258 33.8947 100.874 22.4544 124.123 22.4544C147.373 22.4544 166.221 33.8947 166.221 48.0071C166.221 62.1195 147.373 73.5598 124.123 73.5598C100.874 73.5598 82.0258 62.1195 82.0258 48.0071Z" fill="#be7a40" fill-rule="evenodd" opacity="1" stroke="none"/>
<path d="M100.777 96.8227L147.476 96.8227L147.476 129.445L100.777 129.445L100.777 96.8227Z" fill="#201307" fill-opacity="0.991497" fill-rule="evenodd" opacity="1" stroke="none"/>
<path d="M181.05 162.78L183.869 162.78L183.869 164.128L181.05 164.128L181.05 162.78Z" fill="#201307" fill-opacity="0.991497" fill-rule="evenodd" opacity="1" stroke="none"/>
<g fill="#201307" fill-opacity="0.991497" opacity="1" stroke="none">
<path clip-path="url(#TextBounds)" d="M52.8462 56.8094C56.5719 56.8094 59.463 57.7909 61.5195 59.7539C63.576 61.7169 64.7177 63.947 64.9447 66.4441L61.0588 66.4441C60.6181 64.5479 59.7401 63.0456 58.4248 61.9372C57.1094 60.8289 55.2633 60.2747 52.8863 60.2747C49.9885 60.2747 47.6483 61.2929 45.8656 63.3294C44.0829 65.3658 43.1915 68.4872 43.1915 72.6937C43.1915 76.1389 43.9961 78.9332 45.6052 81.0765C47.2143 83.2197 49.6146 84.2914 52.8062 84.2914C55.744 84.2914 57.9808 83.163 59.5164 80.9062C60.331 79.7177 60.9386 78.1553 61.3392 76.219L65.2252 76.219C64.878 79.3171 63.7295 81.9144 61.7799 84.011C59.443 86.5348 56.2915 87.7967 52.3254 87.7967C48.9069 87.7967 46.0358 86.7618 43.7123 84.692C40.6543 81.9545 39.1253 77.728 39.1253 72.0126C39.1253 67.6727 40.2737 64.1139 42.5705 61.3363C45.0543 58.3184 48.4796 56.8094 52.8462 56.8094Z" fill-rule="evenodd"/>
<path clip-path="url(#TextBounds)" d="M72.356 81.3269C72.356 82.3684 72.7366 83.1897 73.4978 83.7906C74.259 84.3915 75.1603 84.692 76.2019 84.692C77.4705 84.692 78.6991 84.3982 79.8875 83.8106C81.8906 82.8358 82.8921 81.2401 82.8921 79.0233L82.8921 76.1189C82.4515 76.3993 81.8839 76.633 81.1895 76.82C80.4951 77.0069 79.8141 77.1405 79.1464 77.2206L76.9631 77.501C75.6544 77.6746 74.6729 77.9484 74.0186 78.3223C72.9102 78.9499 72.356 79.9514 72.356 81.3269ZM81.0894 74.0357C81.9173 73.9289 82.4715 73.5817 82.7519 72.9941C82.9122 72.6736 82.9923 72.2129 82.9923 71.612C82.9923 70.3835 82.555 69.4921 81.6803 68.9379C80.8056 68.3837 79.5537 68.1067 77.9246 68.1067C76.0417 68.1067 74.7063 68.6141 73.9184 69.629C73.4778 70.1898 73.1907 71.0244 73.0571 72.1328L69.692 72.1328C69.7587 69.4888 70.6167 67.6493 72.2659 66.6144C73.9151 65.5795 75.828 65.062 78.0047 65.062C80.5285 65.062 82.5783 65.5427 84.1541 66.5042C85.7165 67.4657 86.4976 68.9613 86.4976 70.9911L86.4976 83.3499C86.4976 83.7238 86.5744 84.0243 86.728 84.2513C86.8816 84.4783 87.2054 84.5918 87.6995 84.5918C87.8597 84.5918 88.04 84.5818 88.2403 84.5618C88.4406 84.5418 88.6543 84.5117 88.8813 84.4717L88.8813 87.1357C88.3204 87.296 87.8931 87.3961 87.5993 87.4362C87.3055 87.4762 86.9049 87.4963 86.3975 87.4963C85.1556 87.4963 84.2542 87.0556 83.6934 86.1743C83.3996 85.7069 83.1926 85.0459 83.0724 84.1912C82.338 85.1527 81.283 85.9873 79.9076 86.6951C78.5321 87.4028 77.0165 87.7567 75.3606 87.7567C73.3709 87.7567 71.7451 87.1524 70.4832 85.9439C69.2213 84.7354 68.5903 83.2231 68.5903 81.407C68.5903 79.4173 69.2112 77.8749 70.4531 76.7799C71.695 75.6849 73.3242 75.0105 75.3406 74.7568L81.0894 74.0357Z" fill-rule="evenodd"/>
<path clip-path="url(#TextBounds)" d="M101.461 84.6119C103.143 84.6119 104.542 83.9075 105.657 82.4986C106.772 81.0898 107.329 78.9833 107.329 76.179C107.329 74.4697 107.082 73.0008 106.588 71.7723C105.654 69.4086 103.944 68.2268 101.461 68.2268C98.9634 68.2268 97.2541 69.4754 96.3327 71.9726C95.8386 73.3079 95.5915 75.0039 95.5915 77.0603C95.5915 78.7162 95.8386 80.125 96.3327 81.2868C97.2674 83.5035 98.9767 84.6119 101.461 84.6119ZM92.1262 65.683L95.6316 65.683L95.6316 68.5273C96.3527 67.5525 97.1406 66.798 97.9952 66.2638C99.2104 65.4626 100.639 65.062 102.282 65.062C104.712 65.062 106.775 65.9934 108.471 67.8563C110.167 69.7191 111.015 72.3799 111.015 75.8385C111.015 80.5123 109.793 83.8507 107.349 85.8538C105.8 87.1224 103.998 87.7567 101.941 87.7567C100.325 87.7567 98.97 87.4028 97.875 86.6951C97.234 86.2944 96.5196 85.6067 95.7318 84.6319L95.7318 95.5886L92.1262 95.5886L92.1262 65.683Z" fill-rule="evenodd"/>
<path clip-path="url(#TextBounds)" d="M117.365 80.3053C117.472 81.5071 117.772 82.4285 118.266 83.0695C119.174 84.2313 120.75 84.8122 122.993 84.8122C124.329 84.8122 125.504 84.5217 126.519 83.9408C127.534 83.36 128.041 82.4619 128.041 81.2467C128.041 80.3253 127.634 79.6243 126.819 79.1435C126.298 78.8497 125.27 78.5092 123.735 78.122L120.87 77.4009C119.041 76.9468 117.692 76.4394 116.824 75.8785C115.275 74.9037 114.5 73.555 114.5 71.8323C114.5 69.8026 115.232 68.1601 116.694 66.9048C118.156 65.6496 120.122 65.0219 122.593 65.0219C125.824 65.0219 128.155 65.9701 129.583 67.8663C130.478 69.0681 130.912 70.3634 130.885 71.7522L127.48 71.7522C127.413 70.9376 127.126 70.1965 126.619 69.5288C125.791 68.5807 124.355 68.1067 122.312 68.1067C120.95 68.1067 119.919 68.3671 119.218 68.8878C118.517 69.4086 118.166 70.0964 118.166 70.951C118.166 71.8858 118.627 72.6336 119.548 73.1944C120.082 73.5283 120.87 73.8221 121.912 74.0758L124.295 74.6567C126.886 75.2843 128.622 75.8919 129.503 76.4794C130.905 77.4009 131.607 78.8497 131.607 80.8261C131.607 82.7357 130.882 84.3849 129.433 85.7736C127.984 87.1624 125.778 87.8568 122.813 87.8568C119.622 87.8568 117.361 87.1324 116.033 85.6835C114.704 84.2346 113.993 82.4419 113.9 80.3053L117.365 80.3053Z" fill-rule="evenodd"/>
<path clip-path="url(#TextBounds)" d="M136.214 57.6106L140.2 57.6106L140.2 83.5302L155.102 83.5302L155.102 87.0356L136.214 87.0356L136.214 57.6106Z" fill-rule="evenodd"/>
<path clip-path="url(#TextBounds)" d="M171.728 56.8094C176.922 56.8094 180.768 58.4786 183.265 61.817C185.215 64.421 186.19 67.7528 186.19 71.8123C186.19 76.2057 185.075 79.8579 182.845 82.7691C180.227 86.1876 176.495 87.8969 171.648 87.8969C167.121 87.8969 163.562 86.4013 160.971 83.41C158.661 80.5256 157.506 76.8801 157.506 72.4733C157.506 68.4939 158.494 65.0887 160.471 62.2577C163.008 58.6255 166.76 56.8094 171.728 56.8094ZM172.128 84.3314C175.64 84.3314 178.181 83.0729 179.75 80.5557C181.319 78.0385 182.104 75.1441 182.104 71.8724C182.104 68.4138 181.199 65.6295 179.39 63.5196C177.58 61.4098 175.106 60.3548 171.968 60.3548C168.924 60.3548 166.44 61.3997 164.517 63.4896C162.594 65.5795 161.632 68.6608 161.632 72.7337C161.632 75.992 162.457 78.7396 164.106 80.9763C165.755 83.2131 168.429 84.3314 172.128 84.3314Z" fill-rule="evenodd"/>
<path clip-path="url(#TextBounds)" d="M190.937 57.6106L194.823 57.6106L194.823 71.9525L209.165 57.6106L214.673 57.6106L202.435 69.4687L215.014 87.0356L209.826 87.0356L199.53 72.273L194.823 76.7799L194.823 87.0356L190.937 87.0356L190.937 57.6106Z" fill-rule="evenodd"/>
</g>
</g>
</svg>
